<mxfile host="www.draw.io" modified="2020-01-17T09:42:56.014Z" agent="Mozilla/5.0 (Windows NT 10.0; WOW64) AppleWebKit/537.36 (KHTML, like Gecko) Chrome/74.0.3729.131 Safari/537.36" etag="GxGM0JUP_RauMwIR8XCk" version="12.5.5" type="github">
  <diagram id="LGGEMMB9tH4xGVAg0BFs" name="Page-1">
    <mxGraphModel dx="1360" dy="802" grid="1" gridSize="10" guides="1" tooltips="1" connect="1" arrows="1" fold="1" page="1" pageScale="1" pageWidth="3300" pageHeight="4681" math="0" shadow="0">
      <root>
        <mxCell id="0"/>
        <mxCell id="1" parent="0"/>
        <mxCell id="2BuT1YtT7xD2IwbCETt1-3" style="edgeStyle=orthogonalEdgeStyle;rounded=0;orthogonalLoop=1;jettySize=auto;html=1;exitX=1;exitY=0.5;exitDx=0;exitDy=0;entryX=0;entryY=0.5;entryDx=0;entryDy=0;" edge="1" parent="1" source="2BuT1YtT7xD2IwbCETt1-1" target="2BuT1YtT7xD2IwbCETt1-2">
          <mxGeometry relative="1" as="geometry"/>
        </mxCell>
        <mxCell id="2BuT1YtT7xD2IwbCETt1-1" value="&lt;font style=&quot;font-size: 16px&quot;&gt;&lt;font style=&quot;font-size: 16px&quot;&gt;解析配置文&lt;/font&gt;件&lt;/font&gt;" style="rounded=1;whiteSpace=wrap;html=1;" vertex="1" parent="1">
          <mxGeometry x="230" y="180" width="120" height="80" as="geometry"/>
        </mxCell>
        <mxCell id="2BuT1YtT7xD2IwbCETt1-5" style="edgeStyle=orthogonalEdgeStyle;rounded=0;orthogonalLoop=1;jettySize=auto;html=1;exitX=1;exitY=0.5;exitDx=0;exitDy=0;entryX=0;entryY=0.5;entryDx=0;entryDy=0;" edge="1" parent="1" source="2BuT1YtT7xD2IwbCETt1-2" target="2BuT1YtT7xD2IwbCETt1-4">
          <mxGeometry relative="1" as="geometry"/>
        </mxCell>
        <mxCell id="2BuT1YtT7xD2IwbCETt1-2" value="&lt;span style=&quot;font-size: 16px&quot;&gt;根据配置文件名&lt;/span&gt;" style="rounded=1;whiteSpace=wrap;html=1;" vertex="1" parent="1">
          <mxGeometry x="410" y="180" width="120" height="80" as="geometry"/>
        </mxCell>
        <mxCell id="2BuT1YtT7xD2IwbCETt1-4" value="&lt;span style=&quot;font-size: 16px&quot;&gt;生成配置文件名图片&lt;/span&gt;" style="rounded=1;whiteSpace=wrap;html=1;" vertex="1" parent="1">
          <mxGeometry x="590" y="180" width="120" height="80" as="geometry"/>
        </mxCell>
      </root>
    </mxGraphModel>
  </diagram>
</mxfile>
